<svg width="93" height="45" viewBox="0 0 93 45" fill="none" xmlns="http://www.w3.org/2000/svg">
<path d="M3.8923 27.3907C4.15842 27.3408 4.45781 27.3076 4.79046 27.3076C4.84036 25.5611 5.83831 22.6671 6.9028 19.6732C5.90484 19.5235 5.05658 19.5235 4.54097 19.8728C4.17505 18.4257 5.55556 18.143 7.45168 18.1763C8.433 15.3986 9.38106 12.6875 9.58065 10.8745C8.00055 10.7747 6.60341 10.9411 5.72189 11.939C5.43913 12.2384 4.67403 8.46282 8.13361 7.83078C10.9445 7.31517 16.9323 9.61047 18.8117 6.96588C19.0945 6.58333 19.3274 10.0429 17.4479 10.9743C16.2503 11.5565 14.6702 11.49 13.0236 11.2904C12.7907 12.8871 11.9258 15.5317 11.0277 18.4091C12.9903 18.5422 14.7201 18.5255 15.086 17.5941C15.6682 21.0703 13.1899 20.9539 10.4289 20.3884C9.66381 22.9498 8.94861 25.5445 8.68249 27.6568C11.0942 27.9396 13.5059 28.0394 14.5704 26.5258C14.8532 26.1433 15.086 29.6029 13.2066 30.5177C9.9133 32.1476 3.8424 28.8211 1.48057 31.4823C1.19782 31.7817 0.432716 28.0061 3.8923 27.3907ZM17.9136 17.1617C17.897 17.0951 21.5894 16.7625 21.5229 18.8915C21.473 20.2553 18.2795 27.241 18.9448 29.4864C20.5748 27.4074 24.9159 17.1617 24.9159 17.1617C24.8993 17.0951 28.5917 16.7625 28.5086 18.8915C28.4587 20.272 25.6644 25.8439 25.9471 29.5862C27.2278 28.239 28.7747 24.5299 29.0574 23.8313C29.0907 23.7648 29.1572 23.7316 29.2238 23.7316C29.3568 23.7316 29.44 23.848 29.4067 23.9644C29.0075 25.1952 27.3443 30.2682 26.4794 30.7838C25.4814 31.3992 22.7703 30.368 22.5208 29.2369C22.0385 27.1412 24.0677 22.1515 24.7496 19.141C23.419 22.6172 20.3419 30.4179 19.2775 30.8836C18.2961 31.2994 15.6349 30.4511 15.4187 29.1205C15.0195 26.7088 18.4292 19.0911 17.9136 17.1617ZM25.3151 38.9171C24.6332 34.7257 30.9868 20.6213 30.3215 17.1284C30.3049 17.0619 34.147 17.1284 33.9142 19.2407C33.6979 21.2533 30.8371 29.187 29.4899 35.0916C31.9016 26.1433 36.5421 17.6773 37.2573 17.2615C37.906 16.8789 39.9019 17.4444 40.7169 18.8748C41.8146 20.8042 39.4861 30.1185 35.6273 30.9002C34.7624 31.0832 32.7166 29.8025 32.3008 29.2868C30.8704 32.9626 29.5398 37.0709 28.9077 40.8631C28.8246 41.2623 25.5978 40.6469 25.3151 38.9171ZM37.6066 18.3093C37.3904 18.2262 34.8289 22.8667 32.4837 28.8045C35.5608 30.5343 38.3883 18.6253 37.6066 18.3093ZM40.3842 28.9875C39.7023 24.7794 46.1391 10.1926 45.7067 7.08231C45.69 7.01578 49.2162 7.19874 48.9833 9.31108C48.7504 11.49 45.374 20.6712 44.243 26.6589C45.8564 22.6671 48.6673 16.9621 50.2806 17.1118C51.2121 17.1949 53.0915 18.0765 53.2579 18.642C53.7236 20.2054 50.4636 27.3408 50.3971 29.7027C51.6944 28.4552 53.3244 24.5465 53.6072 23.8313C53.6404 23.7648 53.707 23.7316 53.7735 23.7316C53.9065 23.7316 53.9897 23.848 53.9564 23.9644C53.5573 25.1952 51.7277 30.8337 50.9958 30.9335C49.5488 31.1331 47.1038 30.0852 46.9042 28.7712C46.6547 26.9915 49.4989 21.22 49.7817 18.4257C48.95 18.2927 43.9436 28.3055 43.9769 30.8836C44.0767 31.3493 40.6836 30.7505 40.3842 28.9875ZM53.4076 28.7546C52.4262 25.977 54.655 19.0245 57.1665 17.4112C58.0314 16.8457 60.3766 16.9953 61.1251 17.4943C61.7738 17.9101 61.358 18.3093 61.358 18.3093C58.6468 17.0452 55.4534 28.8211 56.7008 29.9688C58.1479 31.2994 61.5908 20.405 59.5117 19.9726C59.5117 19.9726 60.4764 18.6087 61.3081 18.7085C64.1855 19.0911 62.0066 28.871 57.9815 30.7671C56.8838 31.2828 54.2725 31.183 53.4076 28.7546ZM62.1231 29.1538C61.6906 26.5092 64.9672 19.0578 64.435 17.1284C64.4184 17.0619 68.3104 16.7625 68.2439 18.8915C68.194 20.089 66.0816 24.4468 65.7157 28.0228C66.9798 24.0975 69.8739 16.9454 71.6702 17.1118C72.6016 17.1949 74.2316 17.96 74.3979 18.5089C74.6141 19.2407 72.3854 22.7336 72.9841 24.8958C68.0276 24.6796 71.2377 19.0744 71.1712 18.4257C70.3396 18.2927 65.882 28.2057 65.8987 30.8004C65.9153 30.9002 65.7989 30.9667 65.7157 30.9501C65.0005 30.8669 62.3393 30.4844 62.1231 29.1538ZM79.3544 16.8623C74.5975 16.2302 77.6246 13.5524 77.4251 11.7893C82.5812 12.621 78.9386 14.4007 79.3544 16.8623ZM72.9675 29.1538C72.5018 26.609 75.9281 19.0578 75.4125 17.1284C75.3959 17.0619 79.2546 16.7625 79.1881 18.8915C79.1382 20.272 76.3772 25.7607 76.6101 29.5031C77.8741 28.0893 79.3711 24.5133 79.6538 23.8313C79.6705 23.7648 79.737 23.7316 79.8201 23.7316C79.9366 23.7316 80.0197 23.848 79.9865 23.9644C79.6039 25.1952 77.791 30.5177 76.9926 30.9002C76.1776 31.2661 73.1837 30.4012 72.9675 29.1538ZM82.9138 30.8836C82.315 31.2994 79.6206 30.5676 79.0052 29.4532C78.2068 28.0228 80.2027 20.7709 82.0323 18.4257C83.4627 16.6128 86.5564 17.0619 87.2882 17.4943C87.4712 17.5941 87.5377 17.6939 87.4379 17.9767C87.3215 18.2927 87.0886 18.2262 86.7227 18.1264C84.8598 17.644 82.0656 27.8564 82.2485 29.9355L88.1864 17.2947C88.3859 16.7459 91.9121 17.6606 91.5794 18.3592C91.2468 19.0578 88.8184 27.3408 88.7519 29.7027C90.0492 28.4552 91.6958 24.5465 91.9786 23.8313C92.0119 23.7648 92.0784 23.7316 92.1449 23.7316C92.2613 23.7316 92.3611 23.848 92.3112 23.9644C91.9287 25.1952 90.0991 30.8337 89.3673 30.9335C87.9036 31.1331 85.4586 30.0852 85.2756 28.7712C85.1093 27.6568 86.0241 24.2139 86.8724 21.3864C85.4087 25.1786 83.2465 30.6507 82.9138 30.8836Z" fill="#3C4242"/>
<path d="M1 33.626H23.4033" stroke="#333333" stroke-width="0.420324" stroke-miterlimit="10" stroke-linecap="round" stroke-linejoin="round"/>
<path d="M32.9858 33.626H92.0363" stroke="#3C4242" stroke-width="0.420324" stroke-miterlimit="10" stroke-linecap="round" stroke-linejoin="round"/>
<path d="M40.9502 41.2618C40.7866 41.2618 40.5977 41.1972 40.3818 41.0689C40.1667 40.9399 39.9378 40.7694 39.6967 40.5566C39.4555 40.3438 39.2181 40.1126 38.9838 39.8622C38.7503 39.6126 38.5345 39.3637 38.3378 39.1156C38.1412 38.8682 37.976 38.6478 37.8424 38.455L36.7624 40.7863C36.7101 40.9 36.6287 40.9806 36.5173 41.0275C36.406 41.0743 36.2854 41.1027 36.1556 41.1127C36.0257 41.1227 35.8975 41.1273 35.7715 41.1273C35.8675 40.9891 35.9666 40.8301 36.0664 40.6519C36.1671 40.4736 36.2854 40.2586 36.4229 40.0058C36.5604 39.7531 36.7217 39.4466 36.9076 39.0849C37.0934 38.7238 37.3139 38.2914 37.5705 37.789C37.8262 37.2867 38.1289 36.6967 38.4784 36.0185C38.5007 35.9785 38.5306 35.9232 38.5675 35.8518C38.6044 35.7803 38.6236 35.7143 38.6236 35.6551C38.6236 35.6006 38.6051 35.5576 38.5675 35.5253C38.5306 35.4931 38.46 35.4769 38.3563 35.4769C38.178 35.4769 38.0052 35.5253 37.8385 35.6213C37.6718 35.7174 37.5228 35.8403 37.393 35.9893C37.2632 36.1375 37.161 36.2911 37.0865 36.4494C37.012 36.6076 36.9752 36.749 36.9752 36.8726C36.9752 36.9671 36.9936 37.0508 37.0305 37.1253C36.7854 37.1253 36.6126 37.0846 36.5127 37.0032C36.4121 36.9218 36.3622 36.8212 36.3622 36.7021C36.3622 36.5339 36.4359 36.3657 36.5849 36.1974C36.7332 36.0292 36.9245 35.8741 37.1587 35.7335C37.393 35.5921 37.6381 35.48 37.8938 35.3955C38.1496 35.3118 38.3816 35.2695 38.5898 35.2695C38.7903 35.2695 38.9254 35.3064 38.9961 35.3809C39.0668 35.4554 39.1021 35.5368 39.1021 35.6259C39.1021 35.6805 39.0929 35.735 39.0745 35.7896C39.056 35.8441 39.0353 35.8963 39.013 35.9455L38.0774 37.9649C38.1811 37.8658 38.3171 37.7744 38.4838 37.6899C38.6505 37.6062 38.8348 37.5094 39.0353 37.4003C39.3694 37.2221 39.7274 37.014 40.1099 36.7766C40.4924 36.5393 40.8581 36.2888 41.2068 36.0269C41.5555 35.7642 41.8451 35.5123 42.0756 35.2695C42.1124 35.2995 42.1386 35.351 42.1539 35.4255C42.1685 35.5 42.1762 35.5568 42.1762 35.596C42.1762 35.7496 42.0817 35.9178 41.892 36.1007C41.7023 36.2835 41.4557 36.4732 41.1515 36.6683C40.8473 36.8642 40.5132 37.057 40.1491 37.2475C39.785 37.438 39.427 37.6177 39.0745 37.7859C38.7219 37.9542 38.4039 38.1001 38.122 38.2238C38.3447 38.4765 38.5621 38.7161 38.7734 38.9443C38.9846 39.1717 39.215 39.3944 39.4639 39.6126C39.7128 39.8307 40.0039 40.0535 40.338 40.2808C40.6722 40.5082 41.077 40.7532 41.5517 41.0159C41.4995 41.0805 41.418 41.1373 41.3067 41.1865C41.1953 41.2372 41.0762 41.2618 40.9502 41.2618Z" fill="#3C4242"/>
<path d="M46.9089 40.9796C46.4557 40.9796 46.12 40.8882 45.9011 40.7046C45.6822 40.5218 45.5723 40.3013 45.5723 40.044C45.2528 40.3259 44.8856 40.5464 44.4701 40.7046C44.0545 40.8628 43.6343 40.9419 43.2119 40.9419C42.7587 40.9419 42.4191 40.859 42.1925 40.6931C41.9659 40.5272 41.853 40.3228 41.853 40.0809C41.853 39.8581 41.9368 39.6231 42.1034 39.3757C42.2709 39.1284 42.4937 38.8956 42.7717 38.6775C43.0498 38.4601 43.3563 38.2827 43.6904 38.1467C44.0245 38.0107 44.3548 37.9424 44.6821 37.9424C44.8526 37.9424 45.0108 37.9723 45.1552 38.0315C45.3004 38.0906 45.3726 38.212 45.3726 38.3956C45.3726 38.5838 45.2889 38.7604 45.1222 38.9264C44.9555 39.0923 44.7358 39.2398 44.4655 39.368C44.1943 39.4971 43.897 39.6016 43.5744 39.6837C43.2518 39.7659 42.93 39.8159 42.6112 39.8358C42.5966 39.8858 42.5851 39.9326 42.5774 39.9772C42.5697 40.0217 42.5659 40.064 42.5659 40.1031C42.5659 40.2022 42.592 40.2998 42.6442 40.3966C42.6957 40.4934 42.7848 40.5725 42.9115 40.6339C43.0375 40.6961 43.2157 40.7269 43.4461 40.7269C43.8394 40.7269 44.2296 40.6339 44.616 40.4488C45.0016 40.2629 45.3396 40.034 45.6292 39.7621C45.696 39.5593 45.8151 39.3565 45.9856 39.153C46.1561 38.9502 46.3627 38.7658 46.6039 38.5999C46.8451 38.434 47.1071 38.3003 47.389 38.1989C47.6709 38.0975 47.9574 38.0468 48.247 38.0468C48.4175 38.0468 48.5757 38.0768 48.7202 38.136C48.8646 38.1951 48.9375 38.3165 48.9375 38.5C48.9375 38.7528 48.8093 38.974 48.5535 39.1645C48.2977 39.355 47.9689 39.5071 47.5679 39.6215C47.167 39.7352 46.7553 39.8074 46.332 39.8366C46.3174 39.8865 46.3059 39.9334 46.2982 39.9779C46.2905 40.0225 46.2867 40.0647 46.2867 40.1039C46.2867 40.203 46.3105 40.3044 46.3589 40.4081C46.4073 40.5118 46.4926 40.5971 46.6147 40.6639C46.7376 40.7307 46.9135 40.7637 47.1439 40.7637C47.4635 40.7637 47.7823 40.7008 48.1018 40.5748C48.4213 40.4488 48.7178 40.2829 48.9928 40.077C49.2678 39.8719 49.4975 39.6499 49.6834 39.4126L49.817 39.4794C49.6166 39.7767 49.3585 40.0379 49.0428 40.2629C48.7271 40.488 48.386 40.6639 48.0181 40.7899C47.6494 40.9166 47.2799 40.9796 46.9089 40.9796ZM42.6657 39.6945C42.8662 39.6499 43.0928 39.5847 43.3447 39.4979C43.5975 39.4111 43.8402 39.3089 44.0745 39.1898C44.3088 39.0708 44.5016 38.9402 44.6536 38.7965C44.8057 38.6529 44.8818 38.5024 44.8818 38.3434C44.8818 38.2888 44.8672 38.2466 44.8372 38.2174C44.8073 38.1874 44.7443 38.1728 44.6483 38.1728C44.4701 38.1728 44.2803 38.2189 44.0799 38.3103C43.8794 38.4017 43.6866 38.5216 43.5007 38.6706C43.3148 38.8188 43.1481 38.9824 42.9991 39.1606C42.8508 39.3381 42.7395 39.5163 42.6657 39.6945ZM46.3858 39.6945C46.5863 39.6499 46.8052 39.5908 47.0433 39.5163C47.2807 39.4418 47.5073 39.3542 47.7231 39.2528C47.9382 39.1514 48.1164 39.0354 48.2577 38.9041C48.3983 38.7727 48.469 38.6283 48.469 38.4701C48.469 38.4156 48.4505 38.3695 48.4129 38.3326C48.376 38.2957 48.3092 38.2773 48.2124 38.2773C47.9751 38.2773 47.7354 38.3464 47.4942 38.4855C47.253 38.6237 47.0341 38.8012 46.8367 39.0162C46.64 39.2305 46.4895 39.4571 46.3858 39.6945Z" fill="#3C4242"/>
<path d="M48.7475 42.6949C48.6884 42.6949 48.6308 42.6742 48.5747 42.632C48.5186 42.5897 48.4764 42.5452 48.4464 42.4983C48.4164 42.4514 48.4019 42.423 48.4019 42.413C48.5056 42.1703 48.6077 41.9537 48.7083 41.7632C48.809 41.5727 48.9088 41.3768 49.0094 41.1763C49.1093 40.9759 49.2084 40.7408 49.3044 40.4712C49.4012 40.2016 49.5011 39.8659 49.6055 39.4649C49.7092 39.064 49.8137 38.5662 49.9174 37.9724C49.9251 37.9279 49.9397 37.8956 49.9619 37.8757C49.9842 37.8557 50.0395 37.8457 50.1286 37.8457C50.3214 37.8457 50.4589 37.8818 50.5411 37.9532C50.6225 38.0247 50.6632 38.103 50.6632 38.1868C50.6632 38.2559 50.641 38.3796 50.5964 38.5578C50.5519 38.736 50.4889 38.9464 50.4075 39.1892C50.5334 39.0256 50.6917 38.8596 50.8806 38.6914C51.0696 38.5232 51.287 38.3819 51.532 38.2682C51.777 38.1545 52.0444 38.0977 52.3339 38.0977C52.6604 38.0977 52.93 38.176 53.1412 38.3312C53.3525 38.4871 53.4585 38.6914 53.4585 38.9441C53.4585 39.1369 53.3932 39.3413 53.2634 39.5563C53.1336 39.7714 52.9515 39.975 52.718 40.1655C52.4845 40.356 52.2072 40.5111 51.8884 40.6294C51.5689 40.7485 51.2163 40.8076 50.8307 40.8076C50.6371 40.8076 50.482 40.793 50.3629 40.7631C50.2438 40.7331 50.1847 40.7039 50.1847 40.674C50.1847 40.654 50.2123 40.6433 50.2684 40.6402C50.3245 40.6379 50.389 40.6363 50.4635 40.6363C50.7608 40.6363 51.0442 40.5879 51.3154 40.4912C51.5865 40.3944 51.8293 40.2669 52.0451 40.1086C52.2602 39.9504 52.4292 39.7745 52.5521 39.5817C52.6742 39.3889 52.7357 39.1984 52.7357 39.0102C52.7357 38.852 52.6857 38.7168 52.5851 38.6054C52.4853 38.494 52.3232 38.4387 52.1004 38.4387C51.9076 38.4387 51.7164 38.4794 51.5266 38.5608C51.3369 38.6423 51.1587 38.7467 50.992 38.8727C50.8245 38.9987 50.6763 39.13 50.5465 39.266C50.4167 39.4019 50.3183 39.5248 50.2515 39.6332C50.1179 40.0042 49.9842 40.3621 49.8506 40.7062C49.7169 41.0504 49.5886 41.3622 49.4665 41.6418C49.3436 41.9214 49.233 42.1503 49.1324 42.3285C49.0325 42.5067 48.9488 42.6158 48.8819 42.655C48.8435 42.6826 48.799 42.6949 48.7475 42.6949Z" fill="#3C4242"/>
<path d="M57.5018 40.8083C57.2122 40.8083 56.9963 40.7476 56.8558 40.6263C56.7144 40.5049 56.6445 40.3574 56.6445 40.1846C56.6445 40.0709 56.676 39.9273 56.739 39.7537C56.802 39.5808 56.8857 39.3988 56.9894 39.2083C57.0931 39.0178 57.2137 38.838 57.3512 38.6698C57.4887 38.5016 57.6354 38.3641 57.7914 38.2573C57.9473 38.1513 58.0994 38.0976 58.2484 38.0976C58.3152 38.0976 58.3728 38.1114 58.4212 38.1383C58.4696 38.1652 58.4934 38.2066 58.4934 38.2604C58.4934 38.3196 58.4358 38.4163 58.3206 38.55C58.2054 38.6836 58.0702 38.8373 57.9143 39.0101C57.7583 39.1837 57.6231 39.365 57.5079 39.5555C57.3927 39.746 57.3351 39.928 57.3351 40.1016C57.3351 40.2798 57.3796 40.3989 57.4687 40.458C57.5578 40.5172 57.6953 40.5471 57.8812 40.5471C58.1339 40.5471 58.4028 40.4634 58.6885 40.2944C58.9743 40.1262 59.2769 39.832 59.5965 39.4111L59.6963 39.4856C59.4813 39.9111 59.1709 40.2383 58.7661 40.4657C58.3605 40.6946 57.9396 40.8083 57.5018 40.8083ZM58.8376 37.4078C58.7185 37.4078 58.6133 37.3878 58.5203 37.3486C58.4274 37.3087 58.3813 37.2472 58.3813 37.1627C58.3813 37.059 58.4719 36.9684 58.654 36.8916C58.836 36.8148 59.0158 36.7764 59.194 36.7764C59.3053 36.7764 59.3945 36.794 59.4613 36.8286C59.5281 36.8632 59.5611 36.9231 59.5611 37.0068C59.5611 37.1005 59.4851 37.1912 59.333 37.278C59.1817 37.3648 59.0165 37.4078 58.8376 37.4078Z" fill="#3C4242"/>
<path d="M60.3298 40.9573C60.0102 40.9573 59.7652 40.8951 59.5947 40.7715C59.4241 40.6478 59.3389 40.465 59.3389 40.2222C59.3389 40.0049 59.4003 39.736 59.5225 39.4165C59.6446 39.0969 59.799 38.7697 59.9849 38.4325C59.9104 38.4225 59.8405 38.414 59.7736 38.4064C59.7068 38.3987 59.6438 38.3879 59.5847 38.3733V38.2397C59.6438 38.2443 59.7145 38.2497 59.7959 38.2543C59.8773 38.2589 59.9703 38.2643 60.074 38.2689C60.2299 38.0016 60.3974 37.7427 60.5748 37.4931C60.753 37.2434 60.9297 37.0207 61.104 36.8248C61.2784 36.6297 61.4459 36.473 61.6056 36.357C61.7654 36.241 61.9006 36.1826 62.012 36.1826C62.0711 36.1826 62.1249 36.1964 62.1733 36.2233C62.2217 36.2502 62.2455 36.2917 62.2455 36.3455C62.2455 36.43 62.1679 36.5667 62.012 36.7579C61.856 36.9484 61.6632 37.175 61.4328 37.437C61.2024 37.6997 60.9796 37.9839 60.7645 38.2911C60.8314 38.2911 60.8997 38.2911 60.9704 38.2911C61.0411 38.2911 61.1094 38.2911 61.1762 38.2911C61.4213 38.2911 61.6794 38.2888 61.9505 38.2835C62.2217 38.2789 62.4944 38.2658 62.7694 38.2466V38.3802C62.3607 38.4102 61.9951 38.4325 61.6725 38.4471C61.3498 38.4617 61.0618 38.4694 60.8091 38.4694C60.7791 38.4694 60.7515 38.4694 60.7254 38.4694C60.6992 38.4694 60.6716 38.4694 60.6416 38.4694C60.4711 38.7321 60.3259 39.0017 60.2076 39.279C60.0886 39.5563 60.0294 39.8259 60.0294 40.0886C60.0294 40.3014 60.0778 40.4534 60.1738 40.5449C60.2699 40.6363 60.4296 40.6823 60.6531 40.6823C61.0395 40.6823 61.4182 40.5687 61.7892 40.3405C62.1602 40.1132 62.4867 39.8036 62.7694 39.4126L62.9138 39.4871C62.7356 39.7644 62.5105 40.0141 62.2401 40.2368C61.969 40.4596 61.6702 40.6355 61.3437 40.7638C61.0165 40.8928 60.6793 40.9573 60.3298 40.9573Z" fill="#3C4242"/>
<path d="M66.6454 41.031C66.289 41.031 65.9917 40.9519 65.7544 40.7937C65.517 40.6354 65.3979 40.3981 65.3979 40.0808C65.3979 39.8335 65.4702 39.5923 65.6153 39.3565C65.7597 39.1214 65.951 38.9102 66.1891 38.722C66.4265 38.5338 66.69 38.384 66.9795 38.2726C67.2691 38.1613 67.5549 38.106 67.8375 38.106C68.1417 38.106 68.3499 38.1651 68.4613 38.2842C68.5727 38.4032 68.628 38.5269 68.628 38.6552C68.628 38.7988 68.578 38.9248 68.4774 39.0339C68.3775 39.1429 68.2416 39.1975 68.0711 39.1975C67.9451 39.1975 67.8375 39.1606 67.7477 39.0861C67.8591 39.0469 67.9558 38.9663 68.0373 38.8449C68.1187 38.7235 68.1602 38.6083 68.1602 38.4992C68.1602 38.4401 68.1433 38.394 68.1102 38.3617C68.0764 38.3295 68.0119 38.3134 67.9151 38.3134C67.7146 38.3134 67.5088 38.3725 67.2968 38.4916C67.0855 38.6106 66.8881 38.7635 66.7069 38.9517C66.5248 39.1399 66.3766 39.338 66.2613 39.5454C66.1461 39.7536 66.0885 39.9487 66.0885 40.1323C66.0885 40.2859 66.1446 40.4265 66.256 40.5555C66.3673 40.6838 66.5824 40.7483 66.902 40.7483C67.1992 40.7483 67.498 40.6938 67.7984 40.5847C68.0987 40.4757 68.3791 40.3197 68.6395 40.1169C68.8991 39.9141 69.1073 39.676 69.2632 39.4041L69.4076 39.4786C69.2371 39.7759 69.0028 40.0417 68.7063 40.2767C68.409 40.5118 68.0826 40.6961 67.7262 40.8298C67.369 40.9642 67.0087 41.031 66.6454 41.031Z" fill="#3C4242"/>
<path d="M69.9755 40.8383C69.656 40.8383 69.4278 40.7653 69.2903 40.6194C69.1528 40.4734 69.0845 40.2914 69.0845 40.074C69.0845 39.8367 69.1513 39.554 69.285 39.2275C69.4186 38.9011 69.5953 38.5569 69.8142 38.1951C70.0331 37.8341 70.2728 37.4816 70.5324 37.1367C70.792 36.7925 71.0517 36.4799 71.3121 36.1972C71.5717 35.9153 71.8113 35.6895 72.0303 35.5213C72.2492 35.353 72.422 35.2686 72.548 35.2686C72.6294 35.2686 72.6962 35.2993 72.7485 35.3615C72.8007 35.4237 72.8414 35.4975 72.8714 35.5843C72.9006 35.6711 72.9159 35.7486 72.9159 35.8178C72.9159 35.9514 72.866 36.1258 72.7654 36.3416C72.6655 36.5567 72.5242 36.7971 72.3421 37.0621C72.1601 37.3272 71.945 37.5945 71.6961 37.8641C71.4473 38.1337 71.1761 38.3926 70.8834 38.6399C70.59 38.8872 70.2805 39.1 69.9532 39.2782C69.9087 39.4119 69.8733 39.5417 69.8472 39.6684C69.8211 39.7944 69.8081 39.915 69.8081 40.0287C69.8081 40.2215 69.8488 40.3651 69.9302 40.4596C70.0116 40.5533 70.1345 40.6009 70.2981 40.6009C70.4986 40.6009 70.6976 40.5418 70.8942 40.4227C71.0908 40.3037 71.2767 40.1539 71.4511 39.9734C71.6255 39.7929 71.776 39.6062 71.902 39.4126L72.0687 39.4718C71.7714 39.8927 71.4488 40.2253 71.0993 40.4704C70.7513 40.7162 70.3765 40.8383 69.9755 40.8383ZM70.0539 39.0263C70.3135 38.8527 70.5662 38.6537 70.8112 38.4287C71.0563 38.2036 71.2844 37.9693 71.4964 37.7274C71.7084 37.4846 71.8958 37.2496 72.0587 37.0222C72.2215 36.7948 72.3483 36.5905 72.4374 36.41C72.5265 36.2295 72.571 36.0897 72.571 35.9906C72.571 35.9414 72.5618 35.9092 72.5434 35.8938C72.5249 35.8792 72.508 35.8715 72.4935 35.8715C72.4343 35.8715 72.3321 35.9345 72.187 36.0605C72.0426 36.1865 71.8736 36.3562 71.68 36.569C71.4872 36.7818 71.2906 37.0245 71.0901 37.2964C70.8896 37.5684 70.6983 37.8533 70.5163 38.1506C70.3335 38.4471 70.1798 38.7398 70.0539 39.0263Z" fill="#3C4242"/>
<path d="M72.2143 40.9644C71.9839 40.9644 71.7888 40.9137 71.6298 40.8123C71.47 40.7109 71.3901 40.5566 71.3901 40.3484C71.3901 40.1702 71.4493 39.9782 71.5683 39.7731C71.6866 39.568 71.8503 39.3644 72.0584 39.1639C72.2666 38.9634 72.5024 38.7806 72.7659 38.6147C73.0293 38.4488 73.3074 38.3167 73.6016 38.2176C73.895 38.1185 74.1861 38.0693 74.4757 38.0693C74.7653 38.0693 75.0065 38.12 75.1993 38.2214C75.3921 38.3228 75.4889 38.458 75.4889 38.6262C75.4889 38.7499 75.439 38.8344 75.3384 38.8789C75.2377 38.9235 75.1064 38.9458 74.9428 38.9458C74.9574 38.9058 74.9704 38.8628 74.9819 38.816C74.9935 38.7691 74.9988 38.7261 74.9988 38.6861C74.9988 38.5725 74.9581 38.4749 74.8767 38.3927C74.7945 38.3113 74.6539 38.2706 74.4535 38.2706C74.2453 38.2706 74.0341 38.319 73.8182 38.415C73.6031 38.5118 73.395 38.6401 73.1945 38.8014C72.994 38.9627 72.8158 39.137 72.6599 39.3252C72.5039 39.5134 72.3818 39.6993 72.2919 39.8821C72.2028 40.0649 72.1583 40.2286 72.1583 40.3722C72.1583 40.565 72.2581 40.6618 72.4594 40.6618C72.6299 40.6618 72.8158 40.6088 73.0163 40.502C73.2168 40.396 73.4226 40.2593 73.6346 40.0934C73.8459 39.9275 74.0487 39.7554 74.2415 39.5772C74.4343 39.399 74.6056 39.2354 74.7538 39.0871C74.783 39.0572 74.8022 39.0426 74.8091 39.0426C74.8537 39.0472 74.9113 39.0572 74.9819 39.0725C75.0526 39.0871 75.1141 39.1071 75.1655 39.1317C75.2178 39.1562 75.2439 39.1885 75.2439 39.2284C75.2439 39.273 75.2101 39.3337 75.1432 39.4105C75.0764 39.4873 75.0019 39.5749 74.9205 39.674C74.8383 39.7731 74.7646 39.8737 74.6977 39.9751C74.6309 40.0765 74.5979 40.1717 74.5979 40.2608C74.5979 40.3353 74.6271 40.4083 74.687 40.4797C74.7461 40.5519 74.8429 40.5873 74.9766 40.5873C75.177 40.5873 75.4405 40.4897 75.767 40.2939C76.0934 40.0987 76.4245 39.8053 76.7586 39.4136L76.87 39.4881C76.7141 39.7554 76.5136 39.9904 76.2686 40.1932C76.0235 40.396 75.7616 40.555 75.4835 40.6687C75.2055 40.7824 74.932 40.8392 74.6647 40.8392C74.3897 40.8392 74.1877 40.7847 74.0579 40.6756C73.9281 40.5665 73.8628 40.4482 73.8628 40.3192C73.8628 40.2892 73.8666 40.2562 73.8743 40.2193C73.8812 40.1825 73.8889 40.1441 73.8966 40.1041C73.577 40.3914 73.2859 40.6065 73.0224 40.7501C72.7582 40.893 72.4886 40.9644 72.2143 40.9644Z" fill="#3C4242"/>
<path d="M77.7051 40.9943C77.3564 40.9943 77.0799 40.9436 76.8755 40.8422C76.6712 40.7408 76.5268 40.6156 76.4408 40.4674C76.3555 40.3191 76.3125 40.1701 76.3125 40.0219C76.3125 39.8736 76.3425 39.7592 76.4016 39.68C76.4615 39.6009 76.5337 39.5418 76.619 39.5018C76.7042 39.4619 76.7857 39.4327 76.864 39.4127C76.9424 39.3928 76.9954 39.3728 77.0253 39.3536C77.2481 39.19 77.4524 39.0195 77.6383 38.8412C77.8242 38.663 77.987 38.4748 78.1284 38.2767V38.1876C78.1284 38.0047 78.1745 37.8742 78.2674 37.7973C78.3603 37.7205 78.4587 37.6821 78.5624 37.6821C78.6215 37.6821 78.6661 37.6921 78.696 37.7121C78.726 37.7321 78.7406 37.7543 78.7406 37.7789C78.7406 37.8035 78.7298 37.8434 78.7075 37.898C78.6853 37.9525 78.6737 38.0216 78.6737 38.1061C78.6737 38.2698 78.7221 38.4464 78.8182 38.6369C78.9149 38.8274 79.011 39.0279 79.1077 39.2384C79.2038 39.4488 79.2522 39.6678 79.2522 39.8951C79.2522 39.9596 79.2468 40.0226 79.2353 40.0841C79.2245 40.1463 79.2076 40.2039 79.1853 40.2585C79.445 40.2285 79.69 40.1509 79.9204 40.0249C80.1509 39.899 80.3736 39.6969 80.5887 39.4196L80.6886 39.4942C80.5472 39.7661 80.336 39.9727 80.0541 40.114C79.7722 40.2554 79.4634 40.3429 79.1292 40.3775C79.0102 40.5903 78.8228 40.7462 78.567 40.8453C78.312 40.9452 78.0239 40.9943 77.7051 40.9943ZM77.7274 40.7347C77.8165 40.7347 77.9356 40.7147 78.0838 40.6756C78.2321 40.6356 78.3473 40.5342 78.4295 40.3714C78.1176 40.3322 77.8411 40.25 77.5999 40.1263C77.3587 40.0027 77.1782 39.879 77.0599 39.7553C76.8963 39.7607 76.8149 39.8467 76.8149 40.015C76.8149 40.1932 76.8947 40.3575 77.0545 40.5089C77.2128 40.6586 77.4378 40.7347 77.7274 40.7347ZM78.4848 40.2515C78.4994 40.2024 78.5109 40.1501 78.5178 40.0956C78.5255 40.0411 78.5293 39.9765 78.5293 39.9028C78.5293 39.6701 78.4863 39.4389 78.4011 39.2084C78.3158 38.978 78.2436 38.7614 78.1837 38.5586C78.0131 38.7468 77.8326 38.9265 77.6437 39.097C77.4547 39.2676 77.2742 39.4104 77.1037 39.5241C77.2151 39.6824 77.3879 39.8314 77.6214 39.9696C77.8557 40.1087 78.143 40.2024 78.4848 40.2515Z" fill="#3C4242"/>
<path d="M81.5469 40.9943C81.1982 40.9943 80.9217 40.9436 80.7173 40.8422C80.513 40.7408 80.3686 40.6156 80.2826 40.4674C80.1973 40.3191 80.1543 40.1701 80.1543 40.0219C80.1543 39.8736 80.1843 39.7592 80.2434 39.68C80.3033 39.6009 80.3755 39.5418 80.4608 39.5018C80.546 39.4619 80.6275 39.4327 80.7058 39.4127C80.7842 39.3928 80.8372 39.3728 80.8671 39.3536C81.0899 39.19 81.2942 39.0195 81.4801 38.8412C81.666 38.663 81.8288 38.4748 81.9702 38.2767V38.1876C81.9702 38.0047 82.0163 37.8742 82.1092 37.7973C82.2021 37.7205 82.3005 37.6821 82.4042 37.6821C82.4633 37.6821 82.5079 37.6921 82.5378 37.7121C82.5678 37.7321 82.5824 37.7543 82.5824 37.7789C82.5824 37.8035 82.5716 37.8434 82.5493 37.898C82.5271 37.9525 82.5155 38.0216 82.5155 38.1061C82.5155 38.2698 82.5639 38.4464 82.66 38.6369C82.7567 38.8274 82.8528 39.0279 82.9495 39.2384C83.0456 39.4488 83.0939 39.6678 83.0939 39.8951C83.0939 39.9596 83.0886 40.0226 83.077 40.0841C83.0663 40.1463 83.0494 40.2039 83.0271 40.2585C83.2868 40.2285 83.5318 40.1509 83.7622 40.0249C83.9927 39.899 84.2154 39.6969 84.4305 39.4196L84.5304 39.4942C84.389 39.7661 84.1778 39.9727 83.8959 40.114C83.614 40.2554 83.3052 40.3429 82.971 40.3775C82.852 40.5903 82.6646 40.7462 82.4088 40.8453C82.1545 40.9452 81.8665 40.9943 81.5469 40.9943ZM81.5692 40.7347C81.6583 40.7347 81.7774 40.7147 81.9256 40.6756C82.0739 40.6356 82.1891 40.5342 82.2713 40.3714C81.9594 40.3322 81.6829 40.25 81.4417 40.1263C81.2005 40.0027 81.02 39.879 80.9017 39.7553C80.7381 39.7607 80.6567 39.8467 80.6567 40.015C80.6567 40.1932 80.7365 40.3575 80.8963 40.5089C81.0553 40.6586 81.2796 40.7347 81.5692 40.7347ZM82.3266 40.2515C82.3412 40.2024 82.3527 40.1501 82.3596 40.0956C82.3673 40.0411 82.3711 39.9765 82.3711 39.9028C82.3711 39.6701 82.3281 39.4389 82.2429 39.2084C82.1576 38.978 82.0854 38.7614 82.0255 38.5586C81.8549 38.7468 81.6744 38.9265 81.4855 39.097C81.2965 39.2676 81.116 39.4104 80.9455 39.5241C81.0569 39.6824 81.2297 39.8314 81.4632 39.9696C81.6975 40.1087 81.9855 40.2024 82.3266 40.2515Z" fill="#3C4242"/>
<path d="M84.6996 42.6948C84.5137 42.6948 84.3509 42.6617 84.2096 42.5949C84.0682 42.5281 83.9976 42.4305 83.9976 42.3015C83.9976 42.1432 84.0575 42.0019 84.1758 41.8782C84.2941 41.7546 84.4538 41.6409 84.6551 41.5364C84.8556 41.4327 85.0852 41.3336 85.3456 41.2392C85.6053 41.1454 85.8764 41.051 86.1583 40.9572C86.262 40.7744 86.368 40.5701 86.4756 40.345C86.5831 40.12 86.6853 39.8711 86.782 39.5992C86.5447 39.8565 86.2904 40.0777 86.0193 40.2636C85.7481 40.4495 85.4601 40.5417 85.1559 40.5417C85.0146 40.5417 84.8755 40.5209 84.738 40.4787C84.6005 40.4365 84.4876 40.3712 84.3985 40.2821C84.3094 40.193 84.2649 40.0793 84.2649 39.9402C84.2649 39.802 84.3002 39.6407 84.3709 39.4578C84.4415 39.275 84.5283 39.0968 84.6328 38.9232C84.7365 38.7504 84.844 38.6068 84.9562 38.4923C85.0683 38.3778 85.1644 38.3218 85.2458 38.3218C85.2757 38.3218 85.3295 38.3295 85.4071 38.3441C85.4854 38.3586 85.5592 38.3802 85.6298 38.407C85.7005 38.4347 85.7358 38.4631 85.7358 38.4923C85.669 38.5568 85.5945 38.6482 85.5131 38.7673C85.4309 38.8864 85.3518 39.0185 85.2734 39.1644C85.1958 39.3104 85.1306 39.4525 85.0783 39.5915C85.0261 39.7298 85.0007 39.8488 85.0007 39.9479C85.0007 40.037 85.0299 40.1085 85.0898 40.163C85.149 40.2175 85.2535 40.2444 85.4017 40.2444C85.5423 40.2444 85.7005 40.1991 85.8749 40.1069C86.0492 40.0155 86.2236 39.898 86.3987 39.7544C86.5731 39.6107 86.7344 39.4571 86.8834 39.2942C86.9057 39.2397 86.9257 39.1844 86.9449 39.1275C86.9633 39.0707 86.9802 39.0123 86.9948 38.9532C87.0171 38.884 87.0709 38.8034 87.1561 38.712C87.2414 38.6206 87.3773 38.5745 87.5625 38.5745C87.5993 38.5745 87.6362 38.576 87.6738 38.5783C87.7107 38.5806 87.7514 38.5868 87.796 38.5968C87.796 38.6759 87.7606 38.8234 87.69 39.0384C87.6193 39.2535 87.5187 39.5055 87.3889 39.792C87.2591 40.0793 87.1047 40.3735 86.9265 40.6753C87.2752 40.5862 87.617 40.4388 87.9511 40.2337C88.2853 40.0286 88.5564 39.7544 88.7638 39.4133L88.9082 39.4878C88.7969 39.7252 88.6279 39.9318 88.4013 40.1077C88.1747 40.2836 87.9204 40.4341 87.6385 40.5609C87.3566 40.6869 87.0778 40.7921 86.8028 40.8766C86.61 41.1931 86.4003 41.4903 86.1737 41.7676C85.9471 42.0449 85.7097 42.2692 85.4608 42.4397C85.2135 42.6095 84.9593 42.6948 84.6996 42.6948ZM84.6436 42.4566C84.7549 42.4566 84.9424 42.3591 85.2058 42.1632C85.4693 41.9673 85.7497 41.6248 86.0469 41.1347C85.7428 41.2438 85.4601 41.3513 85.2005 41.4581C84.9408 41.5641 84.7327 41.6793 84.5767 41.8037C84.4208 41.9274 84.3432 42.071 84.3432 42.2347C84.3432 42.2746 84.3655 42.3215 84.41 42.376C84.4546 42.4298 84.5322 42.4566 84.6436 42.4566Z" fill="#3C4242"/>
<path d="M88.998 40.6902C88.9012 40.6902 88.8183 40.6741 88.7476 40.6418C88.6769 40.6096 88.6416 40.5589 88.6416 40.4897C88.6416 40.4352 88.6746 40.3845 88.7415 40.3376C88.8083 40.2908 88.892 40.2531 88.9919 40.2263C89.0917 40.1994 89.1901 40.1855 89.2868 40.1855C89.3759 40.1855 89.4466 40.1978 89.4981 40.2224C89.5495 40.247 89.5757 40.2946 89.5757 40.3638C89.5757 40.4137 89.548 40.4628 89.4919 40.512C89.4358 40.5612 89.3636 40.6034 89.2745 40.638C89.1854 40.6725 89.0948 40.6902 88.998 40.6902Z" fill="#3C4242"/>
</svg>
