<svg width="23" height="20" viewBox="0 0 23 20" fill="none" xmlns="http://www.w3.org/2000/svg">
<path d="M7.5 5.40527C7.08579 5.40527 6.75 5.74106 6.75 6.15527C6.75 6.56949 7.08579 6.90527 7.5 6.90527V5.40527ZM15.5 6.90527C15.9142 6.90527 16.25 6.56949 16.25 6.15527C16.25 5.74106 15.9142 5.40527 15.5 5.40527V6.90527ZM7.5 9.40527C7.08579 9.40527 6.75 9.74106 6.75 10.1553C6.75 10.5695 7.08579 10.9053 7.5 10.9053V9.40527ZM11.5 10.9053C11.9142 10.9053 12.25 10.5695 12.25 10.1553C12.25 9.74106 11.9142 9.40527 11.5 9.40527V10.9053ZM21.282 14.0633L21.9503 14.4037V14.4037L21.282 14.0633ZM20.408 14.9373L20.7485 15.6055L20.408 14.9373ZM20.408 1.37326L20.7485 0.705006L20.7485 0.705005L20.408 1.37326ZM21.282 2.24729L21.9503 1.9068V1.9068L21.282 2.24729ZM2.59202 1.37326L2.93251 2.04152L2.93251 2.04152L2.59202 1.37326ZM1.71799 2.24729L2.38624 2.58779L2.38624 2.58779L1.71799 2.24729ZM2.70734 18.5414L3.14003 19.154L3.14011 19.1539L2.70734 18.5414ZM6.66989 15.7418L6.23712 15.1292H6.23712L6.66989 15.7418ZM1.59027 18.6328L2.20486 18.203H2.20486L1.59027 18.6328ZM2.60335 18.6036L2.2683 17.9326L2.26829 17.9326L2.60335 18.6036ZM1.92692 18.8409L1.8173 19.5828H1.8173L1.92692 18.8409ZM2.66983 18.5672L2.26547 17.9356L2.26536 17.9356L2.66983 18.5672ZM2.64376 18.5828L2.2785 17.9278L2.27845 17.9278L2.64376 18.5828ZM7.76828 15.1892L7.90589 15.9265L7.90589 15.9265L7.76828 15.1892ZM7.30048 15.3378L7.61351 16.0194L7.61352 16.0194L7.30048 15.3378ZM7.5 6.90527H15.5V5.40527H7.5V6.90527ZM7.5 10.9053H11.5V9.40527H7.5V10.9053ZM4.7 1.90527H18.3V0.405273H4.7V1.90527ZM20.75 4.35527V11.9553H22.25V4.35527H20.75ZM20.75 11.9553C20.75 12.5277 20.7494 12.9119 20.7252 13.2078C20.7018 13.4949 20.6599 13.6322 20.6138 13.7228L21.9503 14.4037C22.1221 14.0665 22.1892 13.7098 22.2203 13.3299C22.2506 12.9588 22.25 12.503 22.25 11.9553H20.75ZM18.3 15.9053C18.8477 15.9053 19.3035 15.9059 19.6747 15.8755C20.0546 15.8445 20.4112 15.7774 20.7485 15.6055L20.0675 14.269C19.9769 14.3152 19.8396 14.3571 19.5525 14.3805C19.2566 14.4047 18.8724 14.4053 18.3 14.4053V15.9053ZM20.6138 13.7228C20.4939 13.958 20.3027 14.1492 20.0675 14.269L20.7485 15.6055C21.2659 15.3419 21.6866 14.9212 21.9503 14.4037L20.6138 13.7228ZM18.3 1.90527C18.8724 1.90527 19.2566 1.90586 19.5525 1.93003C19.8396 1.95349 19.9769 1.99537 20.0675 2.04152L20.7485 0.705005C20.4112 0.533162 20.0546 0.466051 19.6747 0.435013C19.3035 0.40469 18.8477 0.405273 18.3 0.405273V1.90527ZM22.25 4.35527C22.25 3.8076 22.2506 3.35173 22.2203 2.9806C22.1892 2.60072 22.1221 2.24406 21.9503 1.9068L20.6138 2.58779C20.6599 2.67835 20.7018 2.81563 20.7252 3.10275C20.7494 3.39863 20.75 3.78285 20.75 4.35527H22.25ZM20.0675 2.04152C20.3027 2.16136 20.4939 2.35258 20.6138 2.58779L21.9503 1.9068C21.6866 1.38935 21.2659 0.968658 20.7485 0.705006L20.0675 2.04152ZM4.7 0.405273C4.15232 0.405273 3.69646 0.40469 3.32533 0.435013C2.94544 0.466051 2.58879 0.533162 2.25153 0.705006L2.93251 2.04152C3.02307 1.99537 3.16035 1.95349 3.44748 1.93003C3.74336 1.90586 4.12757 1.90527 4.7 1.90527V0.405273ZM2.25 4.35527C2.25 3.78285 2.25058 3.39863 2.27476 3.10275C2.29822 2.81563 2.3401 2.67835 2.38624 2.58779L1.04973 1.9068C0.877888 2.24406 0.810777 2.60072 0.779739 2.9806C0.749417 3.35173 0.75 3.8076 0.75 4.35527H2.25ZM2.25153 0.705006C1.73408 0.968657 1.31338 1.38935 1.04973 1.9068L2.38624 2.58779C2.50608 2.35258 2.69731 2.16136 2.93251 2.04152L2.25153 0.705006ZM18.3 14.4053H8.51639V15.9053H18.3V14.4053ZM3.14011 19.1539L7.10267 16.3543L6.23712 15.1292L2.27457 17.9288L3.14011 19.1539ZM0.75 17.8608C0.75 18.0605 0.749252 18.262 0.764406 18.4275C0.77946 18.592 0.817386 18.8364 0.97568 19.0627L2.20486 18.203C2.27289 18.3002 2.26568 18.3729 2.25816 18.2908C2.25499 18.2561 2.25258 18.2063 2.2513 18.1313C2.25002 18.0567 2.25 17.9699 2.25 17.8608H0.75ZM2.26829 17.9326C2.18118 17.9761 2.11175 18.0105 2.0523 18.0385C1.99244 18.0667 1.9529 18.0835 1.92597 18.0937C1.86294 18.1174 1.92374 18.0823 2.03654 18.0989L1.8173 19.5828C2.07835 19.6214 2.30366 19.5543 2.45491 19.4973C2.6054 19.4406 2.77432 19.3565 2.93841 19.2746L2.26829 17.9326ZM0.975679 19.0627C1.17274 19.3444 1.47716 19.5326 1.8173 19.5828L2.03654 18.0989C2.10457 18.109 2.16545 18.1466 2.20486 18.203L0.975679 19.0627ZM2.25 17.8608V4.35527H0.75V17.8608H2.25ZM2.27465 17.9288C2.26983 17.9322 2.26637 17.9346 2.26338 17.9367C2.26043 17.9388 2.25887 17.9399 2.25804 17.9405C2.25672 17.9414 2.26002 17.9391 2.26547 17.9356L3.0742 19.1989C3.10147 19.1814 3.12688 19.1633 3.14003 19.154L2.27465 17.9288ZM2.9384 19.2746C2.95307 19.2673 2.9808 19.2536 3.00907 19.2378L2.27845 17.9278C2.28396 17.9247 2.28751 17.9229 2.28623 17.9236C2.28538 17.924 2.28372 17.9249 2.28053 17.9265C2.27732 17.9281 2.27354 17.93 2.2683 17.9326L2.9384 19.2746ZM2.26536 17.9356C2.26971 17.9329 2.27403 17.9303 2.2785 17.9278L3.00902 19.2379C3.03112 19.2256 3.05295 19.2125 3.0743 19.1988L2.26536 17.9356ZM8.51639 14.4053C8.16604 14.4053 7.8965 14.4023 7.63067 14.452L7.90589 15.9265C8.00388 15.9082 8.1118 15.9053 8.51639 15.9053V14.4053ZM7.10266 16.3543C7.4331 16.1208 7.52294 16.061 7.61351 16.0194L6.98745 14.6563C6.7417 14.7691 6.52325 14.9271 6.23712 15.1292L7.10266 16.3543ZM7.63067 14.452C7.40869 14.4934 7.19265 14.562 6.98745 14.6563L7.61352 16.0194C7.70679 15.9765 7.80499 15.9453 7.90589 15.9265L7.63067 14.452Z" fill="#807D7E"/>
</svg>
